<svg width="20" height="21" viewBox="0 0 20 21" fill="none" xmlns="http://www.w3.org/2000/svg">
<path d="M19.9446 7.36211C20.0772 7.70202 19.9653 8.081 19.6793 8.32324L17.8848 9.8626C17.9304 10.1869 17.9552 10.519 17.9552 10.855C17.9552 11.191 17.9304 11.5231 17.8848 11.8474L19.6793 13.3867C19.9653 13.629 20.0772 14.0079 19.9446 14.3479C19.7622 14.8128 19.5425 15.2582 19.2897 15.688L19.0949 16.0044C18.8214 16.4342 18.5147 16.8405 18.179 17.2234C17.9345 17.5047 17.5284 17.5985 17.1636 17.4891L14.8552 16.7975C14.2998 17.2 13.6865 17.536 13.0317 17.7899L12.5136 20.0208C12.4307 20.3764 12.1406 20.6577 11.7593 20.7163C11.1874 20.8061 10.5989 20.853 9.99793 20.853C9.39699 20.853 8.80848 20.8061 8.23654 20.7163C7.85526 20.6577 7.56515 20.3764 7.48226 20.0208L6.96421 17.7899C6.30939 17.536 5.69601 17.2 5.14066 16.7975L2.83635 17.493C2.47164 17.6024 2.06549 17.5047 1.82097 17.2273C1.48527 16.8444 1.17858 16.4381 0.90505 16.0083L0.710262 15.6919C0.457452 15.2621 0.237797 14.8167 0.0554424 14.3518C-0.0771793 14.0118 0.0347202 13.6329 0.320686 13.3906L2.11522 11.8513C2.06963 11.5231 2.04477 11.191 2.04477 10.855C2.04477 10.519 2.06963 10.1869 2.11522 9.8626L0.320686 8.32324C0.0347202 8.081 -0.0771793 7.70202 0.0554424 7.36211C0.237797 6.89718 0.457452 6.45178 0.710262 6.02201L0.90505 5.70554C1.17858 5.27577 1.48527 4.86944 1.82097 4.48655C2.06549 4.20524 2.47164 4.11148 2.83635 4.22087L5.1448 4.91241C5.70015 4.50999 6.31353 4.17399 6.96835 3.92003L7.4864 1.68913C7.56929 1.33359 7.8594 1.05229 8.24069 0.99368C8.81262 0.899911 9.40113 0.853027 10.0021 0.853027C10.603 0.853027 11.1915 0.899912 11.7635 0.989773C12.1447 1.04838 12.4349 1.32968 12.5177 1.68522L13.0358 3.91613C13.6906 4.17008 14.304 4.50608 14.8593 4.90851L17.1678 4.21697C17.5325 4.10757 17.9387 4.20524 18.1832 4.48264C18.5189 4.86553 18.8256 5.27186 19.0991 5.70163L19.2939 6.0181C19.5467 6.44787 19.7663 6.89327 19.9487 7.3582L19.9446 7.36211ZM10.0021 13.9806C10.8814 13.9806 11.7247 13.6513 12.3465 13.0651C12.9683 12.479 13.3176 11.6839 13.3176 10.855C13.3176 10.026 12.9683 9.23101 12.3465 8.64484C11.7247 8.05868 10.8814 7.72937 10.0021 7.72937C9.12274 7.72937 8.27941 8.05868 7.65763 8.64484C7.03584 9.23101 6.68653 10.026 6.68653 10.855C6.68653 11.6839 7.03584 12.479 7.65763 13.0651C8.27941 13.6513 9.12274 13.9806 10.0021 13.9806Z" fill="#1679AB"/>
</svg>
